<svg width="50" height="51" viewBox="0 0 50 51" fill="none" xmlns="http://www.w3.org/2000/svg">
<g clip-path="url(#clip0_9_3399)">
<path d="M24.6662 0.926575C19.806 0.926575 15.055 2.36778 11.0139 5.06794C6.97286 7.7681 3.82323 11.6059 1.96332 16.0961C0.103421 20.5863 -0.383215 25.5272 0.564956 30.294C1.51313 35.0608 3.85352 39.4393 7.29017 42.876C10.7268 46.3126 15.1054 48.653 19.8722 49.6012C24.6389 50.5494 29.5798 50.0627 34.07 48.2028C38.5602 46.3429 42.3981 43.1933 45.0982 39.1522C47.7984 35.1112 49.2396 30.3601 49.2396 25.5C49.2327 18.9848 46.6415 12.7385 42.0346 8.13156C37.4277 3.52464 31.1813 0.933455 24.6662 0.926575ZM24.6662 40.6221C24.1054 40.6221 23.5572 40.4558 23.0909 40.1442C22.6247 39.8327 22.2612 39.3898 22.0466 38.8717C21.832 38.3536 21.7759 37.7835 21.8853 37.2335C21.9947 36.6835 22.2647 36.1783 22.6613 35.7818C23.0578 35.3852 23.563 35.1152 24.113 35.0058C24.663 34.8964 25.2331 34.9525 25.7512 35.1671C26.2693 35.3817 26.7122 35.7451 27.0237 36.2114C27.3353 36.6777 27.5016 37.2259 27.5016 37.7867C27.5016 38.5387 27.2029 39.2599 26.6711 39.7916C26.1394 40.3233 25.4182 40.6221 24.6662 40.6221ZM26.5564 29.1104V29.2805C26.5564 29.7818 26.3573 30.2626 26.0028 30.6171C25.6483 30.9716 25.1675 31.1708 24.6662 31.1708C24.1649 31.1708 23.6841 30.9716 23.3296 30.6171C22.9751 30.2626 22.7759 29.7818 22.7759 29.2805V27.3902C22.7759 26.8889 22.9751 26.4081 23.3296 26.0536C23.6841 25.6991 24.1649 25.5 24.6662 25.5C27.7922 25.5 30.337 23.3734 30.337 20.7743C30.337 18.1752 27.7922 16.0487 24.6662 16.0487C21.5402 16.0487 18.9954 18.1752 18.9954 20.7743V21.7195C18.9954 22.2208 18.7962 22.7016 18.4418 23.0561C18.0873 23.4106 17.6065 23.6097 17.1051 23.6097C16.6038 23.6097 16.123 23.4106 15.7685 23.0561C15.414 22.7016 15.2149 22.2208 15.2149 21.7195V20.7743C15.2149 16.0841 19.4538 12.2681 24.6662 12.2681C29.8786 12.2681 34.1175 16.0841 34.1175 20.7743C34.1175 24.8809 30.8662 28.3188 26.5564 29.1104Z" fill="#E74423"/>
</g>
<defs>
<clipPath id="clip0_9_3399">
<rect width="49.814" height="51" fill="white" transform="translate(0.0927734)"/>
</clipPath>
</defs>
</svg>
