<svg width="44" height="43" viewBox="0 0 44 43" fill="none" xmlns="http://www.w3.org/2000/svg">
<path d="M22 0.78125C17.9022 0.78125 13.8965 1.99638 10.4893 4.27299C7.08211 6.54959 4.42653 9.78542 2.85838 13.5713C1.29023 17.3571 0.879927 21.523 1.67936 25.542C2.4788 29.5611 4.45207 33.2528 7.34964 36.1504C10.2472 39.0479 13.9389 41.0212 17.958 41.8206C21.977 42.6201 26.1429 42.2098 29.9287 40.6416C33.7146 39.0735 36.9504 36.4179 39.227 33.0107C41.5036 29.6035 42.7188 25.5978 42.7188 21.5C42.713 16.0068 40.5282 10.7403 36.644 6.85604C32.7597 2.97178 27.4932 0.787051 22 0.78125ZM29.5026 26.7474C29.6507 26.8955 29.7681 27.0713 29.8483 27.2648C29.9284 27.4582 29.9696 27.6656 29.9696 27.875C29.9696 28.0844 29.9284 28.2918 29.8483 28.4852C29.7681 28.6787 29.6507 28.8545 29.5026 29.0026C29.3545 29.1507 29.1787 29.2681 28.9853 29.3483C28.7918 29.4284 28.5844 29.4696 28.375 29.4696C28.1656 29.4696 27.9582 29.4284 27.7648 29.3483C27.5713 29.2681 27.3955 29.1507 27.2474 29.0026L22 23.7532L16.7526 29.0026C16.6045 29.1507 16.4287 29.2681 16.2353 29.3483C16.0418 29.4284 15.8344 29.4696 15.625 29.4696C15.4156 29.4696 15.2082 29.4284 15.0148 29.3483C14.8213 29.2681 14.6455 29.1507 14.4974 29.0026C14.3494 28.8545 14.2319 28.6787 14.1518 28.4852C14.0716 28.2918 14.0304 28.0844 14.0304 27.875C14.0304 27.6656 14.0716 27.4582 14.1518 27.2648C14.2319 27.0713 14.3494 26.8955 14.4974 26.7474L19.7468 21.5L14.4974 16.2526C14.1984 15.9535 14.0304 15.5479 14.0304 15.125C14.0304 14.7021 14.1984 14.2965 14.4974 13.9974C14.7965 13.6984 15.2021 13.5304 15.625 13.5304C16.0479 13.5304 16.4535 13.6984 16.7526 13.9974L22 19.2468L27.2474 13.9974C27.3955 13.8493 27.5713 13.7319 27.7648 13.6517C27.9582 13.5716 28.1656 13.5304 28.375 13.5304C28.5844 13.5304 28.7918 13.5716 28.9853 13.6517C29.1787 13.7319 29.3545 13.8493 29.5026 13.9974C29.6507 14.1455 29.7681 14.3213 29.8483 14.5148C29.9284 14.7082 29.9696 14.9156 29.9696 15.125C29.9696 15.3344 29.9284 15.5418 29.8483 15.7352C29.7681 15.9287 29.6507 16.1045 29.5026 16.2526L24.2532 21.5L29.5026 26.7474Z" fill="#E1151A"/>
</svg>
