<svg width="23" height="23" viewBox="0 0 23 23" fill="none" xmlns="http://www.w3.org/2000/svg">
<path d="M0 19.6306C0.0980549 19.2073 0.249594 18.8007 0.570501 18.4696C0.735412 18.302 0.90478 18.1343 1.09198 17.9499C1.04741 17.8535 0.985006 17.7277 0.927065 17.602C0.338735 16.3488 0.918151 15.0453 2.27755 14.5675C2.67423 14.425 2.67423 14.425 2.66531 14.0185C2.62965 12.627 3.69935 11.6379 5.17908 11.6881C5.56685 11.7007 5.56685 11.7007 5.70056 11.3654C6.22649 10.0368 7.61709 9.49193 8.9854 10.0787C9.34642 10.2338 9.34642 10.2338 9.6183 9.95716C10.6256 8.9303 12.1544 8.9303 13.1661 9.95716C13.438 10.2338 13.438 10.2338 13.799 10.0829C15.1762 9.49612 16.5579 10.0368 17.0838 11.3654C17.1017 11.4115 17.124 11.4576 17.1329 11.5037C17.1685 11.6714 17.2621 11.7175 17.4493 11.7007C18.1402 11.6337 18.7775 11.7804 19.3124 12.2162C19.9052 12.7024 20.1637 13.3227 20.1235 14.0562C20.1013 14.4208 20.1102 14.425 20.4667 14.5508C21.893 15.0537 22.468 16.3614 21.8351 17.6565C21.6791 17.9792 21.6791 17.9792 21.9688 18.2265C23.2702 19.3581 22.9627 21.2568 21.3715 21.9106C21.171 21.9945 20.9481 22.0322 20.7386 22.0908C14.5121 22.0908 8.28118 22.0908 2.0547 22.0908C2.01458 22.0783 1.97447 22.0615 1.9299 22.0531C1.02066 21.8771 0.418962 21.3658 0.115883 20.5485C0.0713127 20.4269 0.0445705 20.297 0.00891412 20.1671C3.38717e-08 19.991 0 19.8108 0 19.6306ZM20.3821 19.8904C20.2171 16.6087 18.7285 14.0646 15.6665 12.5138C12.3772 10.8499 9.09237 11.0804 6.06158 13.1425C3.65032 14.7771 2.5004 17.0865 2.41126 19.8904C2.87925 19.8904 3.30267 19.8904 3.74837 19.8904C3.79294 17.9289 4.51053 16.2315 5.98135 14.8442C7.45218 13.461 9.23945 12.7485 11.3253 12.7276C13.126 12.7066 14.7394 13.2305 16.139 14.2909C18.0287 15.7243 18.9647 17.6104 19.036 19.8904C19.4817 19.8904 19.9052 19.8904 20.3821 19.8904ZM14.2982 16.462C13.8525 16.462 13.4246 16.462 12.9923 16.462C12.9923 16.8769 12.9923 17.2835 12.9923 17.6942C13.4335 17.6942 13.8614 17.6942 14.2982 17.6942C14.2982 17.2835 14.2982 16.8853 14.2982 16.462ZM10.7326 20.5191C11.1738 20.5191 11.6061 20.5191 12.0385 20.5191C12.0385 20.1 12.0385 19.6934 12.0385 19.2911C11.5928 19.2911 11.1693 19.2911 10.7326 19.2911C10.7326 19.706 10.7326 20.1042 10.7326 20.5191Z" fill="white"/>
<path d="M9.3777 7.3C8.94091 7.3 8.51304 7.3 8.03613 7.3C8.06288 6.89345 8.0807 6.49528 8.12082 6.09711C8.20104 5.27143 8.45955 4.48767 8.78492 3.72067C9.18605 2.78602 9.39107 1.81365 9.38662 0.807744C9.38662 0.774214 9.39107 0.740684 9.39553 0.69458C9.83232 0.69458 10.2647 0.69458 10.7638 0.69458C10.697 1.28974 10.6881 1.8849 10.5544 2.4591C10.3939 3.14228 10.1577 3.81288 9.90363 4.4709C9.57827 5.32592 9.39553 6.20189 9.38662 7.10721C9.38662 7.16588 9.38216 7.22875 9.3777 7.3Z" fill="white"/>
<path d="M12.0475 7.29996C11.6062 7.29996 11.1739 7.29996 10.7282 7.29996C10.7237 6.39884 10.8173 5.52287 11.107 4.67204C11.2719 4.18167 11.4725 3.70386 11.6552 3.21768C11.9539 2.40457 12.0653 1.56632 12.0653 0.69873C12.5065 0.69873 12.9389 0.69873 13.4247 0.69873C13.3801 1.20587 13.3489 1.71302 13.2821 2.21177C13.1885 2.92848 12.9478 3.60746 12.6625 4.27387C12.2659 5.20433 12.0608 6.16413 12.0608 7.16584C12.0564 7.20776 12.0519 7.24548 12.0475 7.29996Z" fill="white"/>
<path d="M14.7348 0.69043C15.176 0.69043 15.6039 0.69043 16.0763 0.69043C16.0496 1.09279 16.0318 1.49515 15.9917 1.89332C15.907 2.78187 15.6039 3.62012 15.2607 4.4458C14.8997 5.31339 14.7348 6.21451 14.7259 7.14078C14.7259 7.19107 14.7214 7.23718 14.7169 7.30004C14.2802 7.30004 13.8478 7.30004 13.3486 7.30004C13.4155 6.70069 13.4422 6.10973 13.5537 5.53133C13.6517 5.02 13.8211 4.51705 14.0083 4.02667C14.4495 2.86988 14.6857 2.35855 14.7348 0.69043Z" fill="white"/>
</svg>
