<svg width="18" height="19" viewBox="0 0 18 19" fill="none" xmlns="http://www.w3.org/2000/svg">
<path d="M8.85938 0.21875C9.44532 0.21875 10.0073 0.457248 10.4216 0.881778C10.8359 1.30631 11.0687 1.88209 11.0687 2.48247C11.0687 3.08285 10.8359 3.65863 10.4216 4.08316C10.0073 4.50769 9.44532 4.74619 8.85938 4.74619C8.27343 4.74619 7.71148 4.50769 7.29715 4.08316C6.88282 3.65863 6.65006 3.08285 6.65006 2.48247C6.65006 1.88209 6.88282 1.30631 7.29715 0.881778C7.71148 0.457248 8.27343 0.21875 8.85938 0.21875ZM12.2794 3.38796C14.1617 3.38796 15.9292 5.19893 15.9292 7.00991C18.3153 7.00991 18.3153 10.6319 15.9292 10.6319H1.78955C-0.596515 10.6319 -0.596515 7.00991 1.78955 7.00991C1.78955 5.19893 3.55701 3.38796 5.43935 3.38796C5.82819 4.95445 7.21564 6.10442 8.85938 6.10442C10.5031 6.10442 11.8906 4.95445 12.2794 3.38796ZM2.67328 12.4428H5.32446L6.20819 18.7812H4.44074L2.67328 12.4428ZM7.09192 12.4428H10.6268L9.7431 18.7812H7.97565L7.09192 12.4428ZM12.3943 12.4428H15.0455L13.278 18.7812H11.5106L12.3943 12.4428Z" fill="white"/>
</svg>
