<?xml version="1.0" encoding="utf-8"?>
<!-- Generator: Adobe Illustrator 24.2.3, SVG Export Plug-In . SVG Version: 6.00 Build 0)  -->
<svg version="1.1" id="Capa_1" xmlns="http://www.w3.org/2000/svg" xmlns:xlink="http://www.w3.org/1999/xlink" x="0px" y="0px"
	 viewBox="0 0 541 536" style="enable-background:new 0 0 541 536;" xml:space="preserve">
<style type="text/css">
	.st0{fill:#FFFFFF;}
</style>
<g>
	<g>
		<path class="st0" d="M13.4,466.1c0-151,0-302.1,0-453.1c170.7,0,341.3,0,512,0c0,170.7,0,341.3,0,512c-15.6,0-31.3,0-46.9,0
			c4.7-1.4,9.7-2.4,14.2-4.3c35.7-15.6,42.5-60.9,13.4-87.9c-6.5-6-6.5-6-3-13.6c14.2-31,1.3-62.1-30.7-74.1c-8-3-8.2-3-7.7-11.8
			c0.9-17.6-4.9-32.4-18.2-43.9c-12-10.4-26.3-13.9-41.8-12.3c-4.2,0.4-6.2-0.8-7.1-4.7c-0.2-1.1-0.7-2.2-1.1-3.3
			c-11.8-31.7-42.9-44.6-73.7-30.6c-8,3.6-8,3.6-14.2-3c-22.7-24.4-56.9-24.4-79.6,0c-6.1,6.6-6.1,6.6-14.2,2.9
			c-30.7-14-61.9-0.9-73.7,30.7c-3,8-3,8-11.7,7.7c-33.2-1.3-57.2,22.3-56.4,55.6c0.2,9.7,0.2,9.7-8.7,13.1
			C34,356.7,21,387.8,34.2,417.7c1.3,3,2.7,6,3.7,8.3c-4.2,4.4-8,8.4-11.7,12.4C19,446.3,15.7,455.9,13.4,466.1z M223.8,171.9
			c0.1-1.7,0.2-3.2,0.2-4.6c0.2-21.6,4.3-42.5,11.6-62.9c5.6-15.7,11-31.7,14.6-48c3-13.6,3.2-27.9,4.7-42.1c-11.1,0-20.8,0-30.7,0
			c-0.1,1.1-0.2,1.9-0.2,2.7c0.1,24.1-4.5,47.2-13.5,69.5c-7.3,18.2-13.1,37-14.9,56.7c-0.9,9.5-1.3,19-1.9,28.7
			C204.4,171.9,214,171.9,223.8,171.9z M283.7,171.9c0.1-1.3,0.3-2.2,0.3-3.2c0-23.9,4.6-46.8,13.5-69c6.4-15.9,11.8-32.1,13.9-49.2
			c1.4-12,2.1-24,3.2-36.1c-10.9,0-20.6,0-30.5,0c0,20.7-2.4,40.8-9.2,60.1c-4,11.6-8.5,23-12.3,34.7c-6.5,20.3-8.6,41.2-8.5,62.7
			C264.1,171.9,273.8,171.9,283.7,171.9z M344,14.2c-1,39.8-6.4,52-16.3,79.6c-4.2,11.7-7.9,23.7-10.2,35.9
			c-2.5,13.8-3.1,27.9-4.6,42.2c11.1,0,20.8,0,30.7,0c0.1-1.5,0.2-2.6,0.2-3.8c0.1-22.2,3.8-43.6,12-64.3
			c7.7-19.7,14.5-39.6,16.4-60.9c0.9-9.5,1.3-19.1,1.9-28.7C363.5,14.2,353.9,14.2,344,14.2z"/>
		<path d="M13.4,466.1c2.2-10.1,5.6-19.8,12.8-27.7c3.7-4,7.5-8,11.7-12.4c-1-2.3-2.4-5.3-3.7-8.3c-13.2-29.9-0.2-61,30.3-72.4
			c8.9-3.4,8.9-3.4,8.7-13.1c-0.8-33.2,23.2-56.8,56.4-55.6c8.7,0.3,8.7,0.3,11.7-7.7c11.8-31.7,43-44.7,73.7-30.7
			c8.1,3.7,8.1,3.7,14.2-2.9c22.6-24.5,56.9-24.5,79.6,0c6.1,6.6,6.1,6.6,14.2,3c30.9-14,61.9-1.1,73.7,30.6
			c0.4,1.1,0.9,2.2,1.1,3.3c0.8,4,2.9,5.1,7.1,4.7c15.5-1.6,29.8,1.9,41.8,12.3c13.3,11.6,19.1,26.4,18.2,43.9
			c-0.5,8.7-0.3,8.8,7.7,11.8c32,12,44.9,43.2,30.7,74.1c-3.5,7.7-3.5,7.7,3,13.6c29.2,27,22.3,72.3-13.4,87.9
			c-4.5,2-9.5,2.9-14.2,4.3c-139.7,0-279.5,0-419.2,0c-0.9-0.3-1.8-0.7-2.8-0.9c-20.4-4.2-33.9-16.4-40.7-35.9c-1-2.9-1.6-6-2.4-9.1
			C13.4,474.7,13.4,470.4,13.4,466.1z M470.7,472.3c-3.7-78.3-37.1-139-105.8-176c-73.8-39.7-147.5-34.2-215.5,15
			c-54.1,39-79.9,94.1-81.9,161c10.5,0,20,0,30,0c1-46.8,17.1-87.3,50.1-120.4c33-33,73.1-50,119.9-50.5c40.4-0.5,76.6,12,108,37.3
			c42.4,34.2,63.4,79.2,65,133.6C450.5,472.3,460,472.3,470.7,472.3z M334.2,390.5c-10,0-19.6,0-29.3,0c0,9.9,0,19.6,0,29.4
			c9.9,0,19.5,0,29.3,0C334.2,410.1,334.2,400.6,334.2,390.5z M254.2,487.3c9.9,0,19.6,0,29.3,0c0-10,0-19.7,0-29.3
			c-10,0-19.5,0-29.3,0C254.2,467.9,254.2,477.4,254.2,487.3z"/>
		<path class="st0" d="M13.4,479c0.8,3,1.4,6.1,2.4,9.1c6.9,19.6,20.3,31.7,40.7,35.9c1,0.2,1.9,0.6,2.8,0.9c-15.3,0-30.6,0-45.9,0
			C13.4,509.6,13.4,494.3,13.4,479z"/>
		<path d="M223.8,171.9c-9.8,0-19.4,0-30.1,0c0.6-9.7,1-19.2,1.9-28.7c1.8-19.7,7.6-38.4,14.9-56.7c9-22.3,13.6-45.5,13.5-69.5
			c0-0.8,0.1-1.6,0.2-2.7c9.8,0,19.5,0,30.7,0c-1.5,14.2-1.7,28.4-4.7,42.1c-3.6,16.3-8.9,32.3-14.6,48
			c-7.3,20.4-11.4,41.3-11.6,62.9C224,168.7,223.9,170.2,223.8,171.9z"/>
		<path d="M283.7,171.9c-9.9,0-19.6,0-29.6,0c-0.1-21.5,2-42.4,8.5-62.7c3.7-11.7,8.2-23.1,12.3-34.7c6.7-19.4,9.2-39.4,9.2-60.1
			c9.9,0,19.6,0,30.5,0c-1,12.1-1.7,24.2-3.2,36.1c-2.1,17.1-7.5,33.3-13.9,49.2c-8.9,22.2-13.5,45.1-13.5,69
			C283.9,169.7,283.8,170.6,283.7,171.9z"/>
		<path d="M344,14.2c9.9,0,19.5,0,30.1,0c-0.6,9.6-1,19.2-1.9,28.7c-1.9,21.2-8.7,41.2-16.4,60.9c-8.1,20.7-11.8,42.2-12,64.3
			c0,1.2-0.1,2.3-0.2,3.8c-9.8,0-19.5,0-30.7,0c1.5-14.3,2.1-28.4,4.6-42.2c2.2-12.2,6-24.2,10.2-35.9C337.6,66.2,342.9,54,344,14.2
			z"/>
		<path class="st0" d="M470.7,472.3c-10.7,0-20.2,0-30.2,0c-1.6-54.4-22.6-99.4-65-133.6c-31.4-25.3-67.7-37.7-108-37.3
			c-46.8,0.5-86.9,17.5-119.9,50.5c-33,33.1-49.1,73.6-50.1,120.4c-10,0-19.6,0-30,0c2-66.9,27.9-122,81.9-161
			c68-49.1,141.7-54.7,215.5-15C433.6,333.3,467,394,470.7,472.3z"/>
		<path class="st0" d="M334.2,390.5c0,10,0,19.6,0,29.4c-9.8,0-19.4,0-29.3,0c0-9.8,0-19.5,0-29.4
			C314.6,390.5,324.2,390.5,334.2,390.5z"/>
		<path class="st0" d="M254.2,487.3c0-9.8,0-19.4,0-29.3c9.8,0,19.3,0,29.3,0c0,9.6,0,19.3,0,29.3
			C273.8,487.3,264.1,487.3,254.2,487.3z"/>
	</g>
</g>
</svg>
