<svg width="29" height="28" viewBox="0 0 29 28" fill="none" xmlns="http://www.w3.org/2000/svg">
<g clip-path="url(#clip0_21_177)">
<rect x="0.5" width="28" height="28" rx="5" fill="white"/>
<path d="M24.3546 23.8576H20.2059V17.3604C20.2059 15.8111 20.1783 13.8167 18.0482 13.8167C15.8874 13.8167 15.5567 15.5048 15.5567 17.2477V23.8572H11.4081V10.4964H15.3908V12.3223H15.4466C15.8452 11.6408 16.4211 11.0801 17.1131 10.7001C17.8051 10.32 18.5872 10.1347 19.3762 10.164C23.5811 10.164 24.3564 12.9299 24.3564 16.5281L24.3546 23.8576ZM6.72688 8.67017C5.39721 8.67038 4.3191 7.5926 4.31888 6.26293C4.31866 4.93326 5.39633 3.85515 6.726 3.85493C8.05567 3.8546 9.13378 4.93238 9.134 6.26206C9.13412 6.90059 8.88058 7.51302 8.42916 7.96463C7.97774 8.41623 7.36541 8.67002 6.72688 8.67017ZM8.80128 23.8578H4.64821V10.4964H8.80117V23.8576L8.80128 23.8578ZM26.4229 0.00197683H2.56352C1.43586 -0.0107107 0.511096 0.892617 0.497314 2.02027V25.9792C0.510658 27.1074 1.43531 28.0116 2.56341 27.9998H26.4229C27.5534 28.0138 28.4817 27.1096 28.4973 25.9792V2.01841C28.4812 0.888571 27.5529 -0.0146482 26.4229 0.000117453" fill="#0A66C2"/>
</g>
<defs>
<clipPath id="clip0_21_177">
<rect x="0.5" width="28" height="28" rx="5" fill="white"/>
</clipPath>
</defs>
</svg>
