<svg width="34" height="25" viewBox="0 0 34 25" fill="none" xmlns="http://www.w3.org/2000/svg">
<g clip-path="url(#clip0_459_11246)">
<path d="M26.9349 21.4307C27.0754 21.4307 27.1893 21.3148 27.1893 21.1719C27.1893 21.029 27.0754 20.9131 26.9349 20.9131C26.7943 20.9131 26.6804 21.029 26.6804 21.1719C26.6804 21.3148 26.7943 21.4307 26.9349 21.4307Z" fill="black"/>
<path d="M29.0566 10.0358C29.3305 9.84808 29.5117 9.52853 29.5117 9.1672V7.08116C29.5117 6.50716 29.0549 6.05468 28.4956 6.07421L16.2875 6.52235C15.7276 6.54188 15.2702 7.02853 15.2702 7.60308V9.1672C15.2702 9.74121 15.7281 10.211 16.2875 10.211H16.9173L17.4805 10.7807C17.5163 10.8187 18.5129 11.8983 18.5129 14.1444C18.5129 15.1568 17.5765 15.9804 16.4264 15.9804H12.3389C11.9776 15.5832 11.3455 13.5704 11.3455 10.217C11.3455 6.77517 12.6449 5.01139 12.6579 4.99403L12.921 4.64409L13.2086 4.76562C13.3849 4.85242 13.5938 4.8687 13.7858 4.7781C14.1266 4.61479 14.2741 4.20355 14.1152 3.85524C14.0568 3.73534 13.9639 3.63573 13.8482 3.56933L12.8049 3.11686C12.7219 2.449 12.2548 1.91568 11.6287 1.81314C11.5045 1.79253 11.3585 1.69975 11.3477 1.65852C11.0656 0.586473 10.3462 0.043396 9.21119 0.043396H7.64597L7.63458 0.870761H7.07794V1.3878C6.67375 1.3878 6.34552 1.96614 6.34552 2.68066C6.34552 3.39355 6.67321 3.97352 7.07794 3.97352V4.49055H7.63404V5.31792H8.72779C7.404 7.26345 5.21488 10.8203 5.21488 13.0789C5.21488 13.176 5.2241 13.2731 5.23983 13.3691C3.37189 13.6203 1.66724 14.7564 0.761208 16.4035C0.583257 16.7263 0.575119 17.0882 0.738422 17.3958C0.993956 17.8781 1.50828 18.0338 2.30635 18.1223C2.07866 18.6447 1.96066 19.2082 1.95967 19.7781C1.95967 22.0627 3.78096 23.9149 6.02868 23.9149C8.10225 23.9149 9.81014 22.3372 10.0619 20.2984H11.3059C11.4361 20.2984 11.543 20.3516 11.753 20.4628C12.0481 20.6185 12.4528 20.8317 13.0382 20.8317H23.0062C23.4647 22.6052 25.0472 23.9149 26.9347 23.9149C28.8227 23.9149 30.4048 22.6052 30.8632 20.8312H33.1739V20.0043C33.1739 14.7504 30.2626 11.2576 29.0566 10.0358ZM15.8366 7.55587C15.8187 7.55696 15.8035 7.56564 15.7856 7.56727C15.8046 7.28732 16.0314 7.04915 16.3048 7.0383L28.5314 6.59125C28.7961 6.59125 29.0029 6.80663 29.0029 7.08116V7.10828L15.8366 7.55587ZM6.02868 21.8468C4.90455 21.8468 3.99417 20.9201 3.99417 19.7781C3.99417 19.2106 4.22312 18.7028 4.58825 18.3306C5.01848 18.3908 5.40476 18.4749 5.63371 18.6008C5.90281 18.7489 6.14315 18.9317 6.3976 19.1254C6.63577 19.3066 6.88805 19.4949 7.17288 19.6669C7.15356 19.7058 7.14445 19.7489 7.1464 19.7923C7.14835 19.8357 7.16129 19.8779 7.18403 19.9149C7.20676 19.9519 7.23853 19.9825 7.27634 20.0038C7.31416 20.0252 7.35678 20.0365 7.40021 20.0369C7.49461 20.0369 7.57327 19.9826 7.61722 19.9056C7.74797 19.9658 7.88577 20.0222 8.03443 20.0711C7.89337 21.0731 7.05353 21.8468 6.02868 21.8468ZM26.9347 21.8468C26.1925 21.8468 25.5545 21.4361 25.2013 20.8317H25.7249C25.735 20.8749 25.7561 20.9147 25.7862 20.9473C25.8094 20.9714 25.8373 20.9906 25.8682 21.0037C25.899 21.0168 25.9322 21.0235 25.9657 21.0235C25.9993 21.0235 26.0324 21.0168 26.0633 21.0037C26.0941 20.9906 26.122 20.9714 26.1453 20.9473C26.1758 20.9149 26.1969 20.875 26.2066 20.8317H27.6639C27.674 20.8749 27.6951 20.9147 27.7252 20.9473C27.7485 20.9714 27.7764 20.9906 27.8072 21.0037C27.8381 21.0168 27.8712 21.0235 27.9048 21.0235C27.9383 21.0235 27.9715 21.0168 28.0023 21.0037C28.0332 20.9906 28.0611 20.9714 28.0843 20.9473C28.1148 20.9149 28.136 20.875 28.1456 20.8317H28.6686C28.3155 21.4361 27.6774 21.8468 26.9347 21.8468ZM13.0382 20.0043C12.2825 20.0043 11.9911 19.471 11.3059 19.471H9.56166C7.66605 19.471 7.14142 18.4917 6.02163 17.8733C4.69513 17.1419 1.03899 17.5933 1.47139 16.8083C2.34541 15.2186 4.15205 14.145 6.02163 14.145C6.16811 14.145 6.31188 14.1553 6.45511 14.1683L6.45403 14.1667C6.45403 14.1667 6.02922 13.5455 6.02922 13.0794C6.02922 10.2176 10.3196 4.4911 10.3196 4.4911H8.44838V0.871304H9.21119C9.62948 0.871304 10.3071 0.905483 10.5621 1.87337C10.6793 2.3177 11.116 2.54014 11.416 2.6123C11.1204 2.7756 10.918 3.08973 10.918 3.45594C10.918 3.98871 11.3423 4.42165 11.8664 4.42165C11.9152 4.42165 11.9618 4.4146 12.0085 4.40646V4.49164H12.0118C12.0118 4.49164 10.5312 6.45562 10.5312 10.2181C10.5312 13.8612 11.288 16.8088 12.2223 16.8088H16.4258C18.0295 16.8088 19.3262 15.6185 19.3262 14.1455C19.3262 11.6569 18.2151 10.37 18.0697 10.2121H28.0491C28.2585 10.3917 32.3601 13.9925 32.3601 20.0054H13.0382V20.0043Z" fill="black"/>
<path d="M25.0773 11.2885C24.3747 11.224 23.6396 11.2413 22.9359 11.4372C22.2355 11.6336 21.5709 11.9938 21.0381 12.506C20.5113 13.0198 20.1066 13.6675 19.9042 14.3728C19.6996 15.0727 19.6487 15.8086 19.755 16.53C19.8672 17.2333 20.1076 17.91 20.4641 18.5265C19.9514 17.2277 19.806 15.7677 20.2753 14.5014C20.7289 13.2346 21.7982 12.264 23.0694 11.9358C23.7009 11.7508 24.3666 11.7302 25.0382 11.7757C25.7077 11.8197 26.3712 11.9542 27.0206 12.1463C27.6701 12.3389 28.3005 12.6091 28.9038 12.934C29.5141 13.2487 30.0925 13.6285 30.6372 14.0625C29.6812 13.0382 28.4649 12.2651 27.1438 11.7703C26.4835 11.5153 25.7842 11.3661 25.0773 11.2885Z" fill="black"/>
<path d="M25.7249 12.296C25.0657 12.2271 24.3821 12.2271 23.7105 12.3638C23.0432 12.5049 22.3932 12.7778 21.8404 13.1999C21.2946 13.6252 20.841 14.1905 20.5931 14.8438C20.3449 15.4904 20.2642 16.1894 20.3587 16.8755C20.4619 17.5406 20.7027 18.1767 21.0656 18.7435C20.5356 17.5418 20.4064 16.1426 20.9522 15.0027C21.4823 13.8607 22.5988 13.1011 23.8114 12.8695C24.4152 12.736 25.0478 12.7327 25.6815 12.7821C26.3141 12.8228 26.9391 12.9503 27.557 13.1114C28.1739 13.2796 28.7756 13.5113 29.355 13.7934C29.9453 14.0671 30.5087 14.3953 31.038 14.7738C30.0961 13.8509 28.9232 13.1744 27.6715 12.7338C27.0418 12.513 26.3885 12.366 25.7249 12.296ZM7.8549 14.6555C7.04593 14.4347 6.18743 14.4796 5.4059 14.7835C4.6374 15.0718 3.97977 15.5957 3.5271 16.2804C4.09805 15.758 4.78353 15.3767 5.52851 15.1671C6.25117 14.9674 7.0118 14.9517 7.71981 15.1541C8.43107 15.344 9.07832 15.7541 9.60186 16.2961C10.1346 16.8658 10.5257 17.5529 10.7434 18.3019C10.7086 17.4748 10.4133 16.68 9.89971 16.0308C9.38036 15.368 8.66458 14.8866 7.8549 14.6555Z" fill="black"/>
<path d="M4.65679 20.0369C4.79732 20.0369 4.91124 19.921 4.91124 19.7781C4.91124 19.6352 4.79732 19.5193 4.65679 19.5193C4.51626 19.5193 4.40234 19.6352 4.40234 19.7781C4.40234 19.921 4.51626 20.0369 4.65679 20.0369Z" fill="black"/>
<path d="M4.87905 20.5805C4.83107 20.6295 4.8042 20.6953 4.8042 20.7639C4.8042 20.8325 4.83107 20.8983 4.87905 20.9473C4.97779 21.0487 5.13893 21.0487 5.23821 20.9473C5.33749 20.8458 5.33804 20.6825 5.23821 20.5805C5.21486 20.5565 5.18693 20.5375 5.15609 20.5245C5.12525 20.5114 5.09211 20.5047 5.05863 20.5047C5.02516 20.5047 4.99202 20.5114 4.96117 20.5245C4.93033 20.5375 4.90241 20.5565 4.87905 20.5805Z" fill="black"/>
<path d="M6.02764 21.4307C6.16817 21.4307 6.28209 21.3148 6.28209 21.1719C6.28209 21.029 6.16817 20.9131 6.02764 20.9131C5.88711 20.9131 5.77319 21.029 5.77319 21.1719C5.77319 21.3148 5.88711 21.4307 6.02764 21.4307Z" fill="black"/>
<path d="M6.8181 20.5811C6.71827 20.682 6.71827 20.8453 6.8181 20.9467C6.91793 21.0482 7.07852 21.0482 7.17726 20.9467C7.22569 20.8982 7.2529 20.8324 7.2529 20.7639C7.2529 20.6953 7.22569 20.6296 7.17726 20.5811C7.15383 20.5572 7.12588 20.5383 7.09505 20.5253C7.06421 20.5124 7.03111 20.5057 6.99768 20.5057C6.96424 20.5057 6.93114 20.5124 6.90031 20.5253C6.86948 20.5383 6.84153 20.5572 6.8181 20.5811ZM4.87908 18.6095C4.83081 18.658 4.80371 18.7236 4.80371 18.792C4.80371 18.8605 4.83081 18.9261 4.87908 18.9746C4.97891 19.0761 5.1395 19.0761 5.23932 18.9746C5.28707 18.9258 5.31381 18.8603 5.31381 18.792C5.31381 18.7238 5.28707 18.6583 5.23932 18.6095C5.21599 18.5853 5.18801 18.566 5.15707 18.5528C5.12612 18.5397 5.09283 18.5329 5.0592 18.5329C5.02557 18.5329 4.99229 18.5397 4.96134 18.5528C4.93039 18.566 4.90241 18.5853 4.87908 18.6095Z" fill="black"/>
<path d="M6.02867 20.2951C6.30973 20.2951 6.53757 20.0637 6.53757 19.7781C6.53757 19.4926 6.30973 19.2611 6.02867 19.2611C5.74762 19.2611 5.51978 19.4926 5.51978 19.7781C5.51978 20.0637 5.74762 20.2951 6.02867 20.2951Z" fill="black"/>
</g>
<defs>
<clipPath id="clip0_459_11246">
<rect width="33.3333" height="25" fill="white"/>
</clipPath>
</defs>
</svg>
